<svg xmlns="http://www.w3.org/2000/svg" viewBox="18 11 64.7 82.1" style="fill:rgb(245 158 11)">
	<path d="M50.1,90.5l23.3-27.3l1.9-2.4l1.6-2.6l1.3-2.7l1.1-2.8l0.8-2.9l0.5-3l0.2-3l-0.1-3l-0.4-3l-0.7-2.9l-1-2.9   l-1.3-2.8l-1.5-2.6l-1.8-2.4l-2-2.3l-2.2-2L67.2,18l-2.6-1.6l-2.7-1.3l-2.8-1l-2.9-0.7l-3-0.4l-3-0.1l-3,0.1l-3,0.4l-2.9,0.7   l-2.9,1l-2.7,1.3L33,18l-2.4,1.8l-2.2,2l-2,2.3l-1.8,2.4L23,29.2l-1.3,2.8l-1,2.9L20,37.8l-0.4,3l-0.1,3l0.2,3l0.5,3l0.8,2.9   l1.1,2.8l1.3,2.7l1.6,2.6l1.9,2.4L50.1,90.5 M50.1,93.1L25.5,64.3l-1.9-2.5L22,59.2l-1.4-2.8l-1.1-2.9l-0.8-3l-0.5-3.1l-0.2-3.1   l0.1-3.1l0.4-3.1l0.7-3.1l1-3l1.2-2.9l1.5-2.7l1.8-2.6l2-2.4l2.2-2.2l2.4-2l2.6-1.7l2.8-1.5l2.9-1.2l3-0.9l3.1-0.6l3.1-0.3h3.1   l3.1,0.3l3.1,0.6l3,0.9l2.9,1.2l2.8,1.5l2.6,1.7l2.4,2l2.2,2.2l2,2.4l1.8,2.6l1.5,2.7l1.2,2.9l1,3l0.7,3.1l0.4,3.1l0.1,3.1   l-0.2,3.1l-0.5,3.1l-0.8,3l-1.1,2.9l-1.4,2.8l-1.7,2.6l-1.9,2.5L50.1,93.1"/>
	<polyline points="26.8,43.4 26.9,40.8 27.3,38.2 28.1,35.7 29.1,33.2 30.3,31 31.8,28.8 33.6,26.9 35.5,25.1    37.7,23.6 40,22.3 42.4,21.3 44.9,20.6 47.5,20.2 50.1,20 52.7,20.2 55.3,20.6 57.8,21.3 60.2,22.3 62.5,23.6 64.6,25.1 66.6,26.9    68.3,28.8 69.8,31 71.1,33.2 72.1,35.7 72.8,38.2 73.3,40.8 73.4,43.4 73.3,46 72.8,48.6 72.1,51.1 71.1,53.5 69.8,55.8 68.3,57.9    66.6,59.9 64.6,61.6 62.5,63.1 60.2,64.4 57.8,65.4 55.3,66.1 52.7,66.6 50.1,66.7 47.5,66.6 44.9,66.1 42.4,65.4 40,64.4 37.7,63.1 35.5,61.6 33.6,59.9 31.8,57.9 30.3,55.8 29.1,53.5 28.1,51.1 27.3,48.6 26.9,46 26.8,43.4"/>
</svg>